<?xml version="1.0" encoding="UTF-8"?>
<svg id="Layer_1" data-name="Layer 1" xmlns="http://www.w3.org/2000/svg" viewBox="0 0 215.53 100">
  <defs>
    <style>
      .cls-1 {
        fill: #ebebec;
      }
    </style>
  </defs>
  <path class="cls-1" d="M215.03,86.58l-.03-.07-31.47-78.16c-1.09-2.68-3.64-4.42-6.5-4.44-2.88,0-5.43,1.72-6.52,4.37l-13.58,32.8-.92,2.23-.92-2.23-13.58-32.8c-1.1-2.66-3.65-4.37-6.49-4.37s-5.43,1.74-6.53,4.44l-27.34,67.87-.52,1.28-1.06-.89-4.88-4.11-.59-.49.33-.69c3.15-6.72,4.75-13.89,4.75-21.31C99.16,22.43,76.92,0,49.58,0S0,22.43,0,50s22.24,50,49.58,50c13.65,0,26.39-5.51,35.86-15.53l.65-.69.72.61,12.19,10.25c1.26,1.06,2.86,1.64,4.5,1.64.59,0,1.17-.07,1.7-.2,2.18-.55,3.98-2.13,4.82-4.22l24.13-59.92.91-2.27.94,2.26,13.48,32.56s.02.02.03.04c.06.1.12.2.16.31.12.26.28.59.47.87.06.08.15.18.23.29.06.07.11.14.17.2.05.06.11.14.18.22.1.13.2.26.31.36.13.13.3.26.49.4h.02s.03.03.03.03c.07.06.15.13.23.19.1.09.21.18.32.26.17.1.34.19.52.28l.27.14c.08.05.15.09.21.13.03.02.06.04.1.06l.12.04c.47.19.89.32,1.29.39.15.03.27.04.4.05.11,0,.23.02.35.03.11,0,.22.02.33.04.11.01.21.03.32.03.16,0,.33-.02.54-.05l.28-.03.21-.02c.12,0,.23-.01.3-.03.55-.12.96-.24,1.34-.41l.16-.07s.02-.01.03-.02l.13-.08.03-.02.04-.02c.33-.16.6-.3.85-.46.12-.08.23-.18.35-.28l.15-.13c.07-.06.15-.13.23-.19.12-.09.23-.18.34-.28.1-.1.18-.21.26-.32.06-.08.13-.17.2-.25.05-.06.11-.13.17-.2.08-.09.16-.18.23-.29.15-.23.28-.49.42-.78l.06-.12c.04-.1.1-.19.15-.28.01-.02.03-.04.04-.06l13.47-32.54.94-2.26.91,2.27,24.13,59.92c1.08,2.7,3.65,4.44,6.53,4.44.88,0,1.8-.18,2.65-.52,3.59-1.46,5.33-5.59,3.89-9.23ZM83.29,61.14l-.46,1.41-1.14-.96-8.85-7.44c-1.26-1.06-2.86-1.64-4.51-1.64-2.1,0-4.07.93-5.41,2.54-2.49,3.01-2.09,7.51.89,10.02l10.6,8.9.84.7-.77.77c-6.12,6.1-14.07,9.68-22.6,10.24l.07.07-2.38.02c-19.57,0-35.49-16.05-35.49-35.78S30.01,14.22,49.58,14.22s35.49,16.05,35.49,35.78c0,3.76-.6,7.5-1.78,11.14Z"/>
</svg>