<?xml version="1.0" encoding="UTF-8"?>
<svg id="Layer_1" data-name="Layer 1" xmlns="http://www.w3.org/2000/svg" viewBox="0 0 217.53 102">
  <defs>
    <style>
      .cls-1 {
        fill: #333132;
      }
    </style>
  </defs>
  <path class="cls-1" d="M216.92,87.13l-31.47-78.16c-1.23-3.05-4.15-5.05-7.42-5.06h-.04c-3.24,0-6.17,1.96-7.42,4.99l-13.58,32.8-13.58-32.8c-1.25-3.03-4.18-4.99-7.42-4.99h-.04c-3.25,0-6.18,2.02-7.42,5.06l-27.35,67.87-4.88-4.11c3.09-6.6,4.84-13.97,4.84-21.73C101.16,22.89,78.46,0,50.58,0S0,22.89,0,51s22.7,51,50.58,51c14.39,0,27.36-6.09,36.59-15.84l12.19,10.25c1.47,1.23,3.29,1.87,5.15,1.87.64,0,1.31-.07,1.95-.23,2.48-.63,4.54-2.41,5.5-4.81l24.13-59.92,13.48,32.56c.05.13.14.23.2.36.16.34.34.7.55,1.03.14.2.3.38.45.56.18.22.34.45.55.67.18.18.39.34.61.5.2.16.39.34.61.5.29.18.59.32.89.49.16.09.3.2.48.27h.04c.48.2.98.36,1.5.45.27.05.54.05.82.09.25.02.5.07.75.07.3,0,.61-.05.93-.09.21-.02.43-.02.64-.07.52-.11,1.02-.25,1.5-.47h.02c.14-.05.27-.14.39-.22.34-.16.66-.32.96-.52.21-.14.39-.31.59-.47.22-.18.43-.34.63-.52.2-.2.36-.43.54-.65.16-.2.32-.36.46-.58.21-.32.38-.67.55-1.03.05-.13.14-.23.2-.36l13.48-32.56,24.13,59.92c1.27,3.15,4.27,5.06,7.45,5.06,1,0,2.04-.2,3.02-.59,4.11-1.68,6.1-6.42,4.43-10.56l-.02-.04ZM50.58,85.78c-19.05,0-34.49-15.57-34.49-34.78S31.53,16.22,50.58,16.22s34.49,15.57,34.49,34.78c0,3.78-.63,7.42-1.73,10.83l-8.85-7.44c-3.41-2.87-8.49-2.4-11.33,1.03-2.84,3.44-2.38,8.56,1.02,11.43l10.6,8.9c-6.22,6.2-14.78,10.02-24.22,10.02l.02.02Z"/>
</svg>