<?xml version="1.0" encoding="UTF-8"?>
<svg id="Layer_1" data-name="Layer 1" xmlns="http://www.w3.org/2000/svg" viewBox="0 0 427 102">
  <defs>
    <style>
      .cls-1 {
        fill: #ebebec;
      }
    </style>
  </defs>
  <g>
    <path class="cls-1" d="M235.06,18.63c7.38-.2,13.51,5.69,13.71,13.14v.49c-.02,3.06-1.06,6.02-2.91,8.43l2.98,2.7-2.75,3.08-2.95-2.92c-2.34,1.75-5.18,2.65-8.08,2.61-7.47.05-13.57-6.02-13.62-13.55v-.36c-.09-7.44,5.81-13.53,13.19-13.62h.43ZM235.06,41.76c1.64,0,3.25-.5,4.63-1.41l-2.95-2.81,2.75-3.03,2.88,2.88c.95-1.55,1.45-3.32,1.45-5.14.21-4.85-3.5-8.96-8.31-9.19-4.81-.22-8.88,3.53-9.11,8.38v.79c-.27,4.97,3.5,9.21,8.44,9.48h.23v.04Z"/>
    <path class="cls-1" d="M253.4,19.08h4.81v17.07c0,3.26,2.63,5.91,5.86,5.91s5.86-2.65,5.86-5.91v-17.07h4.79v17.07c0,5.97-4.27,10.02-10.63,10.02s-10.72-4.05-10.72-10.02l.04-17.07Z"/>
    <path class="cls-1" d="M293.22,38.89h-9.26l-2.23,6.83h-4.95l9.29-26.64h5.04l9.29,26.64h-4.93l-2.25-6.83ZM288.58,23.7s-.59,2.61-1.13,4.13l-2.34,7.21h6.93l-2.36-7.21c-.48-1.51-1.04-4.13-1.04-4.13h-.07Z"/>
    <path class="cls-1" d="M303.5,19.08h4.81l10.01,15.39c.8,1.33,1.54,2.7,2.18,4.13,0,0-.27-2.56-.27-4.13v-15.39h4.77v26.64h-4.68l-10.01-15.35c-.8-1.33-1.54-2.7-2.2-4.13,0,0,.27,2.56.27,4.13v15.35h-4.81l-.07-26.64Z"/>
    <path class="cls-1" d="M336.9,23.25h-8.67v-4.16h22.14v4.16h-8.67v22.47h-4.81v-22.47Z"/>
    <path class="cls-1" d="M353.33,19.08h4.81v17.07c0,3.26,2.63,5.91,5.86,5.91s5.86-2.65,5.86-5.91v-17.07h4.81v17.07c0,5.97-4.29,10.02-10.72,10.02s-10.72-4.05-10.72-10.02l.11-17.07Z"/>
    <path class="cls-1" d="M381.78,19.08h5.15l5.17,13.17c.61,1.57,1.34,3.89,1.34,3.89h.09s.7-2.32,1.29-3.89l5.18-13.17h5.13l2.13,26.64h-4.75l-1.13-14.9c-.11-1.8,0-4.13,0-4.13,0,0-.79,2.6-1.41,4.13l-4.4,10.33h-4.2l-4.25-10.33c-.63-1.53-1.45-4.16-1.45-4.16v4.16l-1.13,14.9h-4.79l2.04-26.64Z"/>
    <path class="cls-1" d="M242.7,60.14h5.13l5.18,13.17c.59,1.57,1.34,3.89,1.34,3.89,0,0,.71-2.32,1.3-3.89l5.16-13.17h5.15l2.13,26.65h-4.77l-1.11-14.9c-.12-1.8,0-4.13,0-4.13,0,0-.77,2.58-1.41,4.13l-4.27,10.33h-4.22l-4.24-10.33c-.64-1.55-1.45-4.16-1.45-4.16v4.16l-1.2,14.9h-4.81l2.07-26.65Z"/>
    <path class="cls-1" d="M287.31,79.96h-9.26l-2.23,6.83h-4.95l9.29-26.65h5.04l9.29,26.65h-4.95l-2.23-6.83ZM282.66,64.75s-.59,2.63-1.13,4.13l-2.34,7.21h6.93l-2.36-7.21c-.48-1.5-1.04-4.13-1.04-4.13h-.07Z"/>
    <path class="cls-1" d="M308.68,59.69c3.59-.14,7.1,1.15,9.76,3.6l-2.32,3.6c-2-1.73-4.52-2.72-7.15-2.81-4.74-.2-8.74,3.53-8.94,8.31v.97c-.29,4.97,3.47,9.23,8.4,9.52h.54c2.9-.11,5.63-1.32,7.67-3.39l2.52,3.5c-2.73,2.81-6.49,4.38-10.38,4.33-7.35.23-13.48-5.59-13.69-12.99v-.97c-.16-7.39,5.65-13.52,12.99-13.68h.59l.02.02Z"/>
    <path class="cls-1" d="M322.86,60.14h4.79v11.3h12.1v-11.3h4.81v26.65h-4.81v-11.19h-12.1v11.19h-4.79v-26.65Z"/>
    <path class="cls-1" d="M350.88,60.14h4.79v26.65h-4.79v-26.65Z"/>
    <path class="cls-1" d="M361.91,60.14h4.81l10.01,15.39c.8,1.33,1.54,2.7,2.2,4.13,0,0-.27-2.56-.27-4.13v-15.39h4.77v26.65h-4.77l-9.9-15.35c-.8-1.33-1.54-2.7-2.2-4.13,0,0,.27,2.54.27,4.13v15.35h-4.81l-.11-26.65Z"/>
    <path class="cls-1" d="M389.81,60.14h15.82v4.22h-11.01v6.97h8.94v4.18h-8.94v7.21h11.67v4.18h-16.41l-.07-26.76Z"/>
    <path class="cls-1" d="M411.65,79.96c1.8,1.68,4.13,2.67,6.58,2.81,2.02,0,3.84-1.06,3.84-3.23,0-4.78-12.51-3.95-12.51-12.13,0-4.43,3.81-7.73,8.94-7.73,2.9-.11,5.74.92,7.9,2.87l-2.07,3.95c-1.64-1.41-3.7-2.23-5.85-2.32-2.23,0-3.98,1.32-3.98,3.19,0,4.72,12.51,3.6,12.51,12.07,0,4.25-3.22,7.82-8.72,7.82-3.4.07-6.67-1.23-9.12-3.6l2.48-3.69Z"/>
  </g>
  <path class="cls-1" d="M216.03,87.58l-.03-.07-31.47-78.16c-1.09-2.68-3.64-4.42-6.5-4.44-2.88,0-5.43,1.72-6.52,4.37l-13.58,32.8-.92,2.23-.92-2.23-13.58-32.8c-1.1-2.66-3.65-4.37-6.49-4.37s-5.43,1.74-6.53,4.44l-27.34,67.87-.52,1.28-1.06-.89-4.88-4.11-.59-.49.33-.69c3.15-6.72,4.75-13.89,4.75-21.31C100.16,23.43,77.92,1,50.58,1S1,23.43,1,51s22.24,50,49.58,50c13.65,0,26.39-5.51,35.86-15.53l.65-.69.72.61,12.19,10.25c1.26,1.06,2.86,1.64,4.5,1.64.59,0,1.17-.07,1.7-.2,2.18-.55,3.98-2.13,4.82-4.22l24.13-59.92.91-2.27.94,2.26,13.48,32.56s.02.02.03.04c.06.1.12.2.16.31.12.26.28.59.47.87.06.08.15.18.23.29.06.07.11.14.17.2.05.06.11.14.18.22.1.13.2.26.31.36.13.13.3.26.49.4h.02s.03.03.03.03c.07.06.15.13.23.19.1.09.21.18.32.26.17.1.34.19.52.28l.27.14c.08.05.15.09.21.13.03.02.06.04.1.06l.12.04c.47.19.89.32,1.29.39.15.03.27.04.4.05.11,0,.23.02.35.03.11,0,.22.02.33.04.11.01.21.03.32.03.16,0,.33-.02.54-.05l.28-.03.21-.02c.12,0,.23-.01.3-.03.55-.12.96-.24,1.34-.41l.16-.07s.02-.01.03-.02l.13-.08.03-.02.04-.02c.33-.16.6-.3.85-.46.12-.08.23-.18.35-.28l.15-.13c.07-.06.15-.13.23-.19.12-.09.23-.18.34-.28.1-.1.18-.21.26-.32.06-.08.13-.17.2-.25.05-.06.11-.13.17-.2.08-.09.16-.18.23-.29.15-.23.28-.49.42-.78l.06-.12c.04-.1.1-.19.15-.28.01-.02.03-.04.04-.06l13.47-32.54.94-2.26.91,2.27,24.13,59.92c1.08,2.7,3.65,4.44,6.53,4.44.88,0,1.8-.18,2.65-.52,3.59-1.46,5.33-5.59,3.89-9.23ZM84.29,62.14l-.46,1.41-1.14-.96-8.85-7.44c-1.26-1.06-2.86-1.64-4.51-1.64-2.1,0-4.07.93-5.41,2.54-2.49,3.01-2.09,7.51.89,10.02l10.6,8.9.84.7-.77.77c-6.12,6.1-14.07,9.68-22.6,10.24l.07.07-2.38.02c-19.57,0-35.49-16.05-35.49-35.78S31.01,15.22,50.58,15.22s35.49,16.05,35.49,35.78c0,3.76-.6,7.5-1.78,11.14Z"/>
</svg>