<svg width="15" height="15" viewBox="0 0 20 20" fill="none" xmlns="http://www.w3.org/2000/svg">
<path fill-rule="evenodd" clip-rule="evenodd" d="M17.9519 12.4895L20 12.4821L19.9816 7.44139L17.9329 7.44956C17.5589 6.26302 16.9309 5.1907 16.1133 4.29762L17.1311 2.50346L12.7954 0L11.7813 1.78763C11.2043 1.66011 10.6049 1.59292 9.98995 1.59292C9.35981 1.59292 8.74599 1.66348 8.15586 1.7972L7.13081 0.0211214L2.81349 2.55835L3.83641 4.33075C3.01985 5.23233 2.39536 6.31396 2.02828 7.50975L0 7.5176L0.0183666 12.5583L2.04698 12.5506C2.42294 13.7434 3.05556 14.8207 3.87936 15.7166L2.86956 17.4965L7.20525 20L8.21693 18.2167C8.7883 18.3416 9.38151 18.4073 9.98995 18.4073C10.6265 18.4073 11.2463 18.3353 11.842 18.199L12.8693 19.9787L17.1866 17.4415L16.1556 15.6561C16.9665 14.757 17.5867 13.6798 17.9519 12.4895ZM13.7482 10.0001C13.7482 12.0712 12.0693 13.7501 9.99822 13.7501C7.92716 13.7501 6.24822 12.0712 6.24822 10.0001C6.24822 7.92905 7.92716 6.25012 9.99822 6.25012C12.0693 6.25012 13.7482 7.92905 13.7482 10.0001Z" fill="#7d8590"/>
</svg>
